<?xml version="1.0" standalone="no"?>
<!DOCTYPE svg PUBLIC "-//W3C//DTD SVG 20010904//EN"
 "http://www.w3.org/TR/2001/REC-SVG-20010904/DTD/svg10.dtd">
<svg version="1.0" xmlns="http://www.w3.org/2000/svg"
 width="500.000000pt" height="500.000000pt" viewBox="0 0 500.000000 500.000000"
 preserveAspectRatio="xMidYMid meet">
<metadata>HQ</metadata>
<g transform="translate(0.000000,500.000000) scale(0.100000,-0.100000)"
fill="#000000" stroke="none">
<path d="M1957 4674 c-1 -1 -37 -4 -80 -5 -199 -6 -444 -85 -624 -201 -160
-104 -363 -307 -462 -463 l-32 -50 98 -18 c54 -9 107 -19 118 -21 11 -3 28 -5
38 -5 25 -1 22 -7 -58 -95 -152 -168 -272 -374 -319 -546 -24 -91 -29 -114
-42 -187 -7 -45 -11 -270 -4 -315 l5 -36 85 74 c47 41 88 74 92 74 4 0 4 -10
-1 -23 -24 -62 -44 -231 -44 -367 0 -363 128 -692 377 -975 l35 -40 14 35 c8
19 23 59 33 88 10 28 22 52 25 52 4 0 35 -39 70 -87 35 -49 71 -97 80 -108
328 -397 484 -564 797 -847 85 -78 308 -261 329 -270 18 -9 29 -4 70 28 60 48
214 175 229 189 6 6 48 44 94 85 287 259 582 580 812 885 50 66 94 124 98 128
4 4 22 -32 40 -80 18 -48 34 -90 36 -92 4 -5 20 12 84 89 181 218 287 470 325
770 8 57 8 255 1 295 -3 17 -7 50 -10 75 -7 54 -11 76 -25 126 -6 21 -9 39 -8
41 2 1 14 -8 28 -20 80 -72 150 -129 155 -124 9 9 10 257 2 331 -33 279 -164
547 -377 769 -31 32 -57 62 -59 66 -1 4 55 18 125 30 71 13 131 26 135 28 19
10 -119 191 -226 298 -234 232 -484 363 -774 405 -81 12 -389 9 -442 -4 -14
-3 -36 -8 -50 -11 -14 -3 -74 -18 -133 -34 l-109 -30 -155 40 c-85 22 -187 42
-227 45 -114 8 -166 10 -169 8z m208 -157 c88 -14 124 -22 227 -49 l117 -30
93 26 c224 62 417 76 522 38 119 -43 222 -123 324 -248 41 -50 55 -77 30 -56
-33 26 -262 133 -338 157 -166 53 -251 40 -508 -80 l-124 -57 -56 27 c-234
115 -303 138 -412 138 -105 -1 -206 -34 -388 -128 -133 -70 -136 -68 -55 33
60 75 77 91 151 142 68 46 144 79 207 90 36 6 161 4 210 -3z m305 -512 l45
-23 41 23 c106 60 245 47 394 -37 89 -49 157 -108 215 -184 61 -79 61 -79 -4
-79 -64 0 -107 -24 -206 -110 -109 -95 -142 -111 -210 -106 -11 1 -30 14 -43
28 -20 22 -23 34 -20 89 2 48 0 60 -9 51 -15 -16 -43 -101 -43 -132 0 -37 58
-105 140 -163 102 -73 150 -119 171 -166 l17 -40 7 37 c5 24 2 54 -7 81 l-15
44 43 0 c60 0 147 27 182 57 37 31 38 31 38 1 0 -13 22 -68 50 -122 48 -95 49
-100 48 -183 0 -90 -10 -121 -60 -188 l-24 -32 -53 18 c-114 39 -136 34 -77
-16 91 -76 81 -173 -30 -282 -107 -106 -206 -123 -338 -58 -121 59 -189 233
-126 321 11 14 65 51 122 82 56 31 107 64 112 74 17 32 -2 75 -38 88 -29 9
-35 9 -157 -3 -102 -10 -134 -10 -220 0 -141 16 -171 11 -205 -32 -28 -35 -11
-64 58 -97 148 -72 195 -119 195 -195 0 -157 -185 -302 -341 -267 -71 16 -175
101 -216 176 -41 75 -34 126 25 187 30 31 38 43 24 39 -120 -35 -146 -38 -166
-20 -10 9 -31 42 -46 72 -21 44 -27 70 -27 126 0 63 5 82 38 151 21 44 46 104
55 133 l16 54 25 -22 c38 -33 88 -51 162 -57 62 -5 66 -7 57 -25 -13 -24 -21
-128 -10 -128 5 0 14 14 22 31 17 42 71 96 149 149 80 54 150 125 151 153 4
48 -2 82 -21 123 -10 24 -21 44 -23 44 -2 0 -2 -26 -1 -57 2 -61 -14 -106 -41
-117 -55 -21 -124 1 -187 59 -123 113 -208 162 -268 153 -36 -5 -36 -5 -8 41
83 140 302 279 463 293 48 5 125 -12 175 -37z m990 -118 c131 -96 289 -278
376 -434 50 -88 109 -237 138 -346 25 -90 29 -109 41 -192 3 -23 8 -52 10 -65
7 -33 7 -292 1 -322 -3 -13 -7 -36 -10 -53 -14 -101 -47 -229 -73 -278 l-14
-28 -38 58 c-21 32 -57 78 -82 103 l-43 44 -8 -35 c-4 -20 -9 -47 -12 -60 -9
-45 -24 -88 -75 -207 -78 -185 -223 -384 -476 -651 -217 -229 -666 -661 -687
-661 -26 0 -549 505 -770 744 -252 273 -420 557 -469 794 -7 34 -16 62 -20 62
-13 0 -89 -82 -124 -136 -35 -52 -55 -62 -55 -25 0 9 -4 21 -9 27 -16 16 -61
214 -68 298 -11 129 -5 359 12 408 2 7 6 29 9 48 17 117 109 366 180 487 74
127 186 262 297 358 57 50 198 145 215 145 3 0 -24 -33 -58 -72 -175 -201
-275 -417 -293 -631 -3 -35 -8 -75 -11 -88 -2 -13 -7 -111 -11 -218 l-6 -194
64 36 c35 19 87 42 114 50 l50 14 1 -82 c4 -208 75 -408 212 -591 90 -120 368
-400 552 -554 29 -25 58 -50 64 -55 6 -6 37 -32 69 -58 l59 -47 106 92 c320
277 531 487 647 642 135 181 198 373 204 618 l1 46 53 -20 c28 -11 75 -33 104
-49 28 -16 54 -26 56 -22 3 4 3 78 2 163 -7 471 -77 676 -335 981 l-45 53 50
-28 c28 -16 75 -47 105 -69z m-836 -1551 c61 -14 163 -79 209 -133 44 -51 46
-100 9 -176 -114 -232 -413 -286 -592 -107 -89 89 -130 194 -98 253 32 60 144
137 238 164 45 12 177 12 234 -1z"/>
</g>
</svg>
