<?xml version="1.0" standalone="no"?>
<!DOCTYPE svg PUBLIC "-//W3C//DTD SVG 20010904//EN"
 "http://www.w3.org/TR/2001/REC-SVG-20010904/DTD/svg10.dtd">
<svg version="1.0" xmlns="http://www.w3.org/2000/svg"
 width="700.000000pt" height="700.000000pt" viewBox="0 0 700.000000 700.000000"
 preserveAspectRatio="xMidYMid meet">
<metadata>
Created by potrace 1.11, written by Peter Selinger 2001-2013
</metadata>
<g transform="translate(0.000000,700.000000) scale(0.100000,-0.100000)"
fill="#000000" stroke="none">
<path d="M4849 5026 c-2 -2 -33 -7 -68 -10 -36 -4 -67 -9 -71 -11 -4 -2 -21
-7 -39 -10 -103 -18 -287 -102 -399 -182 -140 -101 -253 -234 -340 -401 -46
-90 -108 -250 -118 -311 -3 -14 -10 -46 -16 -71 -25 -107 -35 -255 -33 -470 2
-229 12 -321 50 -470 95 -370 319 -662 613 -801 206 -98 317 -122 563 -123
l175 -1 100 -80 c54 -43 104 -84 110 -90 6 -5 28 -23 50 -40 21 -16 54 -43 74
-60 21 -16 54 -43 76 -60 21 -16 63 -50 94 -75 93 -76 86 -72 101 -58 8 7 84
72 169 143 85 71 161 135 167 141 7 7 25 22 40 34 32 25 54 3 -197 200 -107
84 -201 159 -209 165 -11 11 1 26 66 88 223 214 353 502 390 867 9 92 9 419 0
515 -30 321 -161 622 -359 826 -169 175 -347 271 -595 325 -70 15 -382 31
-394 20z m293 -547 c198 -66 313 -249 365 -575 10 -64 10 -511 0 -591 -27
-217 -94 -385 -194 -488 -91 -95 -224 -143 -368 -132 -291 21 -457 248 -492
672 -12 152 -5 538 12 587 2 7 6 27 9 43 14 99 74 256 121 321 120 165 345
232 547 163z"/>
<path d="M1086 4988 c-10 -6 -13 -285 -13 -1398 0 -1266 1 -1390 16 -1391 21
-1 609 -1 638 0 l23 1 0 533 c0 292 0 555 0 582 l0 50 493 0 492 0 3 -583 c2
-455 5 -582 15 -583 15 -1 639 -1 650 0 4 1 7 628 7 1395 0 1106 -3 1395 -12
1398 -11 3 -604 2 -645 -1 -10 -1 -13 -119 -13 -554 l0 -554 -495 0 -495 0 0
31 c-1 17 -1 266 -1 554 0 396 -3 522 -12 523 -59 5 -641 2 -651 -3z"/>
</g>
</svg>
