<?xml version="1.0" encoding="utf-8"?>
<!-- Generator: Adobe Illustrator 24.0.3, SVG Export Plug-In . SVG Version: 6.00 Build 0)  -->
<svg version="1.1" id="Layer_1" xmlns="http://www.w3.org/2000/svg" xmlns:xlink="http://www.w3.org/1999/xlink" x="0px" y="0px"
	 viewBox="0 0 80 80" enable-background="new 0 0 80 80" xml:space="preserve">
<path fill-rule="evenodd" clip-rule="evenodd" d="M13.2,62.4h54.6c2.3,0,4.2,1.9,4.2,4.2l0,0c0,2.3-1.9,4.2-4.2,4.2H13.2
	C10.8,70.8,9,69,9,66.6l0,0C9,64.3,10.8,62.4,13.2,62.4z"/>
<path fill-rule="evenodd" clip-rule="evenodd" d="M28.9,34.2c-1.7-1.7-4.6-1.7-6.3,0c-1.7,1.7-1.7,4.6,0,6.3l15.8,15.8
	c1.2,1.2,3.1,1.2,4.2,0l15.8-15.8c1.7-1.7,1.7-4.6,0-6.3c-1.7-1.7-4.6-1.7-6.3,0l-7.2,7.2V12.6c0-2.5-2-4.5-4.5-4.5
	c-2.5,0-4.5,2-4.5,4.5v28.7L28.9,34.2z"/>
</svg>
