<?xml version="1.0" encoding="utf-8"?>
<!-- Generator: Adobe Illustrator 24.0.3, SVG Export Plug-In . SVG Version: 6.00 Build 0)  -->
<svg version="1.1" id="Layer_1" xmlns="http://www.w3.org/2000/svg" xmlns:xlink="http://www.w3.org/1999/xlink" x="0px" y="0px"
	 viewBox="0 0 60 60" enable-background="new 0 0 60 60" xml:space="preserve">
<g>
	<path d="M5.5,8.9h49.1c0.7,0,1.4,0.4,2,0.8c0.6,0.5,0.8,1.2,0.9,2c0,0.1,0,0.4,0,0.5c0,0.2,0,0.5,0,0.7c0,0.8-0.2,1.5-0.6,2.2
		c-0.4,0.7-0.9,1.3-1.5,1.8L32.8,32.6c-0.8,0.6-1.9,0.9-2.8,0.9c-1.1,0-2-0.4-2.8-0.9L4.7,16.9C4,16.4,3.5,15.8,3,15.1
		c-0.5-0.7-0.6-1.5-0.6-2.2c0-0.2,0-0.5,0-0.7c0-0.1,0-0.4,0-0.5c0-0.7,0.4-1.4,0.9-2C4,9.1,4.7,8.9,5.5,8.9z"/>
	<path opacity="0.7" enable-background="new    " d="M54.6,51.1H5.5c-0.8,0-1.5-0.4-2.1-0.8c-0.6-0.6-0.8-1.3-0.8-2.1V20.4
		l22.3,15.5c1.5,1.1,3.4,1.6,5.3,1.6c1.9,0,3.6-0.6,5.3-1.6l22.3-15.5v27.7c0,0.8-0.4,1.5-0.8,2.1C56.1,50.7,55.3,51.1,54.6,51.1
		L54.6,51.1z"/>
</g>
</svg>
