<?xml version="1.0" encoding="utf-8"?>
<!-- Generator: Adobe Illustrator 24.0.3, SVG Export Plug-In . SVG Version: 6.00 Build 0)  -->
<svg version="1.1" id="Layer_1" xmlns="http://www.w3.org/2000/svg" xmlns:xlink="http://www.w3.org/1999/xlink" x="0px" y="0px"
	 viewBox="0 0 60 60" enable-background="new 0 0 60 60" xml:space="preserve">
<path fill-rule="evenodd" clip-rule="evenodd" d="M29.9,1.3C13.6,1.3,0.5,14.4,0.5,30.7c0,13,8.5,24,20.1,28c1.4,0.2,2-0.7,2-1.4
	c0-0.7,0-2.5,0-5.1c-8.1,1.8-9.9-4-9.9-4c-1.3-3.4-3.3-4.3-3.3-4.3c-2.7-1.8,0.2-1.8,0.2-1.8c2.9,0.2,4.5,3.1,4.5,3.1
	c2.7,4.5,6.9,3.3,8.5,2.5c0.2-2,1.1-3.3,1.8-4c-6.5-0.7-13.4-3.3-13.4-14.6c0-3.3,1.1-5.8,3.1-8c-0.4-0.7-1.3-3.8,0.4-7.8
	c0,0,2.5-0.7,8.1,3.1c2.3-0.7,4.9-0.9,7.4-0.9s5.1,0.4,7.4,0.9c5.6-3.8,8.1-3.1,8.1-3.1c1.6,4,0.5,7,0.4,7.8c1.8,2,3.1,4.7,3.1,8
	c0,11.4-6.9,13.7-13.4,14.5c1.1,0.9,2,2.7,2,5.4c0,4,0,7,0,8.1c0,0.7,0.5,1.6,2,1.4c11.7-4,20.1-15,20.1-28
	C59.4,14.4,46.2,1.3,29.9,1.3z"/>
</svg>
