<?xml version="1.0" encoding="utf-8"?>
<!-- Generator: Adobe Illustrator 24.0.3, SVG Export Plug-In . SVG Version: 6.00 Build 0)  -->
<svg version="1.1" id="Layer_1" xmlns="http://www.w3.org/2000/svg" xmlns:xlink="http://www.w3.org/1999/xlink" x="0px" y="0px"
	 viewBox="0 0 60 60" enable-background="new 0 0 60 60" xml:space="preserve">
<path d="M30.1,57l-1.3-1.3C28.6,55.5,12.1,39,6.6,33.3c-4.1-4.1-5.9-8.8-5.5-14.1c0.3-3.9,1.9-7.5,4.5-10.4c2.6-2.9,6.1-4.8,9.9-5.4
	C18,2.9,20.6,3,23.1,3.6c2.5,0.6,4.8,1.8,6.8,3.4c0.6-0.5,1.2-1,1.9-1.4c2.4-1.5,5.2-2.4,8.1-2.6c2.9-0.2,5.7,0.3,8.4,1.4
	c2.6,1.1,5,2.9,6.8,5.1c1.8,2.2,3.1,4.9,3.6,7.7c1.2,6.2-0.4,11.5-4.7,15.8L30.1,57z M18.8,6.9c-0.9,0-1.8,0.1-2.7,0.2
	c-3,0.5-5.8,2-7.8,4.2c-2.1,2.2-3.3,5.1-3.5,8.2c-0.3,4.2,1.1,7.8,4.4,11.1c4.6,4.8,16.8,17,20.8,21l21.3-21.2
	C54.7,27,55.9,23,54.9,18c-0.5-2.2-1.4-4.3-2.9-6c-1.4-1.8-3.3-3.1-5.3-4c-2.1-0.9-4.3-1.3-6.6-1.1c-2.3,0.2-4.4,0.9-6.4,2.1
	c-0.6,0.4-1.2,0.8-1.7,1.3c-0.3,0.3-0.6,0.5-0.9,0.8l-1.3,1l-1.2-1.2l-0.4-0.4C25.6,8.1,22.2,6.8,18.8,6.9z"/>
</svg>
