<?xml version="1.0" encoding="utf-8"?>
<!-- Generator: Adobe Illustrator 24.0.3, SVG Export Plug-In . SVG Version: 6.00 Build 0)  -->
<svg version="1.1" id="Layer_1" xmlns="http://www.w3.org/2000/svg" xmlns:xlink="http://www.w3.org/1999/xlink" x="0px" y="0px"
	 viewBox="0 0 60 60" enable-background="new 0 0 60 60" xml:space="preserve">
<path d="M6.5,32.4C2.8,28.7,0.8,24.3,1.3,19c0.3-3.7,1.8-7.1,4.2-9.8c2.5-2.7,5.8-4.5,9.4-5.1c2.6-0.5,5.2-0.4,7.7,0.3
	c2.5,0.7,4.8,2,6.7,3.8l0.5,0.5c1-0.9,2-1.7,3.1-2.4c2.3-1.4,5-2.3,7.7-2.5c2.7-0.2,5.4,0.3,8,1.3C51,6.2,53.3,7.9,55,10
	c1.7,2.1,2.9,4.6,3.5,7.3c1.1,5.7-0.2,10.8-4.4,15l-24,24C30,56.2,12.5,38.6,6.5,32.4z"/>
</svg>
