<?xml version="1.0" encoding="utf-8"?>
<!-- Generator: Adobe Illustrator 24.0.3, SVG Export Plug-In . SVG Version: 6.00 Build 0)  -->
<svg version="1.1" id="Layer_1" xmlns="http://www.w3.org/2000/svg" xmlns:xlink="http://www.w3.org/1999/xlink" x="0px" y="0px"
	 viewBox="0 0 60 60" style="enable-background:new 0 0 60 60;" xml:space="preserve">
<g>
	<path d="M47.9,43.1c-0.2,0.5-0.6,0.7-1.2,0.7c-2,0-4.1,0-6.1,0c-1,0-1.1-0.2-1.1-1.2c0-3.7,0-7.5,0-11.2c0-0.8-0.1-1.7-0.3-2.5
		c-0.3-1.5-1.1-2.2-2.3-2.3c-1.9-0.2-3.1,0.4-3.7,1.8c-0.3,0.8-0.5,1.7-0.5,2.6c-0.1,3.8,0,7.5-0.1,11.3c0,1.3-0.2,1.5-1.5,1.5
		c-1.8,0-3.7,0-5.5,0c-1.1,0-1.4-0.2-1.4-1.3c0-7.2,0-14.4,0-21.5c0-1.1,0.2-1.3,1.3-1.3c1.8,0,3.5,0,5.3,0c1.3,0,1.4,0.2,1.5,1.5
		c0,0.1,0,0.2,0,0.3c0.1,0,0.2,0,0.2-0.1c3.3-2.7,6.9-2.9,10.7-1.3c2.5,1,3.5,3.2,4,5.7c0.2,1.2,0.3,2.5,0.4,3.7
		c0.1,1.4,0.1,2.8,0.1,4.3C47.9,36.8,47.9,40,47.9,43.1z"/>
	<path d="M12.7,31.7c0-3.6,0-7.1,0-10.7c0-1.2,0.2-1.4,1.4-1.4c1.9,0,3.8,0,5.7,0c0.9,0,1.2,0.3,1.2,1.2c0,7.2,0,14.5,0,21.7
		c0,1-0.3,1.3-1.2,1.3c-2,0-3.9,0-5.9,0c-1,0-1.3-0.3-1.3-1.3C12.7,38.9,12.7,35.3,12.7,31.7z"/>
	<path d="M17,8.2c2.7,0.1,4.7,2.2,4.6,4.8c-0.1,2.7-2.2,4.7-4.9,4.6c-2.6-0.1-4.6-2.3-4.6-4.9C12.2,10.2,14.4,8.2,17,8.2z"/>
</g>
</svg>
