<?xml version="1.0" encoding="utf-8"?>
<!-- Generator: Adobe Illustrator 24.0.3, SVG Export Plug-In . SVG Version: 6.00 Build 0)  -->
<svg version="1.1" id="Layer_1" xmlns="http://www.w3.org/2000/svg" xmlns:xlink="http://www.w3.org/1999/xlink" x="0px" y="0px"
	 viewBox="0 0 60 60" style="enable-background:new 0 0 60 60;" xml:space="preserve">
<path id="vk" d="M29.6,41.5H32c0,0,0.7-0.1,1.1-0.5c0.3-0.4,0.3-1.1,0.3-1.1s0-3.3,1.5-3.7c1.5-0.5,3.4,3.1,5.4,4.5
	c1.5,1.1,2.7,0.8,2.7,0.8l5.4-0.1c0,0,2.8-0.2,1.5-2.4c-0.1-0.2-0.8-1.6-4-4.7c-3.4-3.2-2.9-2.6,1.1-8.1c2.5-3.3,3.5-5.3,3.2-6.2
	c-0.3-0.8-2.1-0.6-2.1-0.6H42c0,0-0.5-0.1-0.8,0.1s-0.5,0.7-0.5,0.7s-1,2.6-2.3,4.8c-2.7,4.6-3.8,4.9-4.2,4.6
	c-1-0.7-0.8-2.7-0.8-4.1c0-4.5,0.7-6.3-1.3-6.8c-0.7-0.2-1.2-0.3-2.8-0.3c-2.2,0-4,0-5.1,0.5C23.5,19.2,23,20,23.3,20
	c0.4,0.1,1.3,0.2,1.8,0.9c0.6,0.9,0.6,2.8,0.6,2.8s0.4,5.3-0.8,5.9C24.1,30,23,29.1,20.5,25c-1.2-2.1-2.2-4.5-2.2-4.5
	s-0.2-0.4-0.5-0.7c-0.4-0.3-0.9-0.4-0.9-0.4h-5.8c0,0-0.9,0-1.2,0.4c-0.3,0.3,0,1,0,1s4.5,10.6,9.7,16
	C24.2,41.8,29.6,41.5,29.6,41.5"/>
</svg>
