<?xml version="1.0" encoding="utf-8"?><svg width="200" height="200" viewBox="0 0 200 200" xmlns="http://www.w3.org/2000/svg" xmlns:xlink="http://www.w3.org/1999/xlink"><view id="arrow" viewBox="80 0 60 60"/><svg viewBox="0 0 60 60" width="60" height="60" x="80" xmlns="http://www.w3.org/2000/svg"><path d="M10.9 26.3l5.6-5.6L30 34.1l13.5-13.4 5.6 5.6-19.1 19z"/></svg><view id="close" viewBox="0 80 60 60"/><svg viewBox="0 0 60 60" width="60" height="60" y="80" xmlns="http://www.w3.org/2000/svg"><path d="M36.6 24.8l-1.5-1.3-5.1 5.1-5.1-5.1-1.5 1.3 5.2 5.2-5.2 5.1 1.5 1.4 5.1-5 5.1 5 1.5-1.4-5.2-5.1z"/></svg><view id="download" viewBox="0 0 80 80"/><svg viewBox="0 0 80 80" width="80" height="80" xmlns="http://www.w3.org/2000/svg"><path fill-rule="evenodd" clip-rule="evenodd" d="M13.2 62.4h54.6c2.3 0 4.2 1.9 4.2 4.2 0 2.3-1.9 4.2-4.2 4.2H13.2C10.8 70.8 9 69 9 66.6c0-2.3 1.8-4.2 4.2-4.2zM28.9 34.2c-1.7-1.7-4.6-1.7-6.3 0-1.7 1.7-1.7 4.6 0 6.3l15.8 15.8c1.2 1.2 3.1 1.2 4.2 0l15.8-15.8c1.7-1.7 1.7-4.6 0-6.3-1.7-1.7-4.6-1.7-6.3 0l-7.2 7.2V12.6c0-2.5-2-4.5-4.5-4.5s-4.5 2-4.5 4.5v28.7l-7-7.1z"/></svg><view id="email" viewBox="60 80 60 60"/><svg viewBox="0 0 60 60" width="60" height="60" x="60" y="80" xmlns="http://www.w3.org/2000/svg"><path d="M5.5 8.9h49.1c.7 0 1.4.4 2 .8.6.5.8 1.2.9 2v1.2c0 .8-.2 1.5-.6 2.2-.4.7-.9 1.3-1.5 1.8L32.8 32.6c-.8.6-1.9.9-2.8.9-1.1 0-2-.4-2.8-.9L4.7 16.9c-.7-.5-1.2-1.1-1.7-1.8s-.6-1.5-.6-2.2v-.7-.5c0-.7.4-1.4.9-2 .7-.6 1.4-.8 2.2-.8z"/><path opacity=".7" d="M54.6 51.1H5.5c-.8 0-1.5-.4-2.1-.8-.6-.6-.8-1.3-.8-2.1V20.4l22.3 15.5c1.5 1.1 3.4 1.6 5.3 1.6s3.6-.6 5.3-1.6l22.3-15.5v27.7c0 .8-.4 1.5-.8 2.1-.9.5-1.7.9-2.4.9z"/></svg><view id="github" viewBox="140 0 60 60"/><svg viewBox="0 0 60 60" width="60" height="60" x="140" xmlns="http://www.w3.org/2000/svg"><path fill-rule="evenodd" clip-rule="evenodd" d="M29.9 1.3C13.6 1.3.5 14.4.5 30.7c0 13 8.5 24 20.1 28 1.4.2 2-.7 2-1.4v-5.1c-8.1 1.8-9.9-4-9.9-4-1.3-3.4-3.3-4.3-3.3-4.3-2.7-1.8.2-1.8.2-1.8 2.9.2 4.5 3.1 4.5 3.1 2.7 4.5 6.9 3.3 8.5 2.5.2-2 1.1-3.3 1.8-4C17.9 43 11 40.4 11 29.1c0-3.3 1.1-5.8 3.1-8-.4-.7-1.3-3.8.4-7.8 0 0 2.5-.7 8.1 3.1 2.3-.7 4.9-.9 7.4-.9s5.1.4 7.4.9c5.6-3.8 8.1-3.1 8.1-3.1 1.6 4 .5 7 .4 7.8 1.8 2 3.1 4.7 3.1 8 0 11.4-6.9 13.7-13.4 14.5 1.1.9 2 2.7 2 5.4v8.1c0 .7.5 1.6 2 1.4 11.7-4 20.1-15 20.1-28-.3-16.1-13.5-29.2-29.8-29.2z"/></svg><view id="heart.fill" viewBox="140 60 60 60"/><svg viewBox="0 0 60 60" width="60" height="60" x="140" y="60" xmlns="http://www.w3.org/2000/svg"><path d="M6.5 32.4C2.8 28.7.8 24.3 1.3 19c.3-3.7 1.8-7.1 4.2-9.8 2.5-2.7 5.8-4.5 9.4-5.1 2.6-.5 5.2-.4 7.7.3s4.8 2 6.7 3.8l.5.5c1-.9 2-1.7 3.1-2.4 2.3-1.4 5-2.3 7.7-2.5 2.7-.2 5.4.3 8 1.3C51 6.2 53.3 7.9 55 10c1.7 2.1 2.9 4.6 3.5 7.3 1.1 5.7-.2 10.8-4.4 15l-24 24c-.1-.1-17.6-17.7-23.6-23.9z"/></svg><view id="heart.stroke" viewBox="0 140 60 60"/><svg viewBox="0 0 60 60" width="60" height="60" y="140" xmlns="http://www.w3.org/2000/svg"><path d="M30.1 57l-1.3-1.3c-.2-.2-16.7-16.7-22.2-22.4-4.1-4.1-5.9-8.8-5.5-14.1.3-3.9 1.9-7.5 4.5-10.4 2.6-2.9 6.1-4.8 9.9-5.4 2.5-.5 5.1-.4 7.6.2 2.5.6 4.8 1.8 6.8 3.4.6-.5 1.2-1 1.9-1.4C34.2 4.1 37 3.2 39.9 3c2.9-.2 5.7.3 8.4 1.4 2.6 1.1 5 2.9 6.8 5.1 1.8 2.2 3.1 4.9 3.6 7.7 1.2 6.2-.4 11.5-4.7 15.8L30.1 57zM18.8 6.9c-.9 0-1.8.1-2.7.2-3 .5-5.8 2-7.8 4.2-2.1 2.2-3.3 5.1-3.5 8.2-.3 4.2 1.1 7.8 4.4 11.1 4.6 4.8 16.8 17 20.8 21l21.3-21.2C54.7 27 55.9 23 54.9 18c-.5-2.2-1.4-4.3-2.9-6-1.4-1.8-3.3-3.1-5.3-4-2.1-.9-4.3-1.3-6.6-1.1-2.3.2-4.4.9-6.4 2.1-.6.4-1.2.8-1.7 1.3-.3.3-.6.5-.9.8l-1.3 1-1.2-1.2-.4-.4c-2.6-2.4-6-3.7-9.4-3.6z"/></svg><view id="menu" viewBox="60 140 60 60"/><svg viewBox="0 0 60 60" width="60" height="60" x="60" y="140" xmlns="http://www.w3.org/2000/svg"><path d="M21.5 22h17.6v2.2H21.5zM26.4 28.8h12.7V31H26.4zM21.5 35.2h17.6v2.2H21.5z"/></svg><view id="more" viewBox="140 120 60 20"/><svg viewBox="0 0 60 20" width="60" height="20" x="140" y="120" xmlns="http://www.w3.org/2000/svg"><circle cx="7.8" cy="10" r="5.3"/><circle cx="30" cy="10" r="5.3"/><circle cx="52.2" cy="10" r="5.3"/></svg><view id="plus" viewBox="120 140 60 60"/><svg viewBox="0 0 60 60" width="60" height="60" x="120" y="140" xmlns="http://www.w3.org/2000/svg"><path d="M55.9 26.2H33.8V4.1h-7.6v22.1H4.1v7.6h22.1v22.1h7.6V33.8h22.1z"/></svg></svg>